<?xml version="1.0" encoding="UTF-8" standalone="no"?>
<!-- Created with Inkscape (http://www.inkscape.org/) -->

<svg
   xmlns:dc="http://purl.org/dc/elements/1.1/"
   xmlns:cc="http://creativecommons.org/ns#"
   xmlns:rdf="http://www.w3.org/1999/02/22-rdf-syntax-ns#"
   xmlns:svg="http://www.w3.org/2000/svg"
   xmlns="http://www.w3.org/2000/svg"
   xmlns:sodipodi="http://sodipodi.sourceforge.net/DTD/sodipodi-0.dtd"
   xmlns:inkscape="http://www.inkscape.org/namespaces/inkscape"
   version="1.1"
   id="svg3713"
   width="919"
   height="763"
   viewBox="0 0 919 763"
   sodipodi:docname="ellipse.svg"
   inkscape:version="0.92.4 (5da689c313, 2019-01-14)">
  <metadata
     id="metadata3719">
    <rdf:RDF>
      <cc:Work
         rdf:about="">
        <dc:format>image/svg+xml</dc:format>
        <dc:type
           rdf:resource="http://purl.org/dc/dcmitype/StillImage" />
        <dc:title></dc:title>
      </cc:Work>
    </rdf:RDF>
  </metadata>
  <defs
     id="defs3717" />
  <sodipodi:namedview
     pagecolor="#ffffff"
     bordercolor="#666666"
     borderopacity="1"
     objecttolerance="10"
     gridtolerance="10"
     guidetolerance="10"
     inkscape:pageopacity="0"
     inkscape:pageshadow="2"
     inkscape:window-width="1863"
     inkscape:window-height="978"
     id="namedview3715"
     showgrid="false"
     inkscape:zoom="0.75993127"
     inkscape:cx="516.13514"
     inkscape:cy="430.39702"
     inkscape:window-x="26"
     inkscape:window-y="13"
     inkscape:window-maximized="0"
     inkscape:current-layer="svg3713" />
  <defs>
    <linearGradient id="background" x1="0" y1="100%" x2="35%" y2="0">
      <stop offset="20%" stop-color="#ff8f5a" />
      <stop offset="100%" stop-color="#ff2f96" />
    </linearGradient>
  </defs>
  <path fill="url(#background)" d="M 560.2,0.4 C 639.8,2.5 712.5,29.8 768.1,79.7 c 34,27.1 65.1,64.4 91.1,108.2 20.9,33.5 36.2,65.2 47.4,105.6 11.9,44.8 10.3,54 11.8,82.3 1.8,31.7 -1.7,64 -9.7,92.2 -16.5,57.1 -43.7,103 -77.1,142.2 -29.9,36.2 -66.1,64.5 -106.5,87.1 -32.8,19.1 -65.4,32.6 -98.3,41.1 -34.2,9.8 -68.9,14.6 -105.6,19.4 -30.2,3.1 -60.8,4.2 -91.6,4.2 -31.5,0.5 -65.5,-1.5 -97.5,-4.1 C 267.8,753.3 199.3,741.1 133.2,714.3 85.7,694.1 56.4,676 28.9,643.6 11.1,617.2 3.2,596.8 0.8,571.8 -0.1,560 -0.2,557.5 0.4,547.8 2.5,521.6 5.8,500.6 19,466.5 44.1,403.6 81.7,347.2 122,290.2 c 30.1,-41.4 65.4,-83.8 98.8,-118.7 30.3,-29.9 59.7,-60.3 96.8,-86.5 38.4,-26.5 77,-48 119,-62.8 26.5,-9.1 53.4,-16.3 83,-19.4 17.4,-1.6 26.3,-1.7 40.2,-2.3 z" />
</svg>