<?xml version="1.0" standalone="no"?>
<!DOCTYPE svg PUBLIC "-//W3C//DTD SVG 20010904//EN"
 "http://www.w3.org/TR/2001/REC-SVG-20010904/DTD/svg10.dtd">
<svg version="1.0" xmlns="http://www.w3.org/2000/svg"
 width="80.000000pt" height="80.000000pt" viewBox="0 0 80.000000 80.000000"
 preserveAspectRatio="xMidYMid meet">
<metadata>
Created by potrace 1.11, written by Peter Selinger 2001-2013
</metadata>
<g transform="translate(0.000000,80.000000) scale(0.100000,-0.100000)"
fill="#000000" stroke="none">
<path d="M318 658 c-3 -29 -6 -33 -30 -30 -39 5 -68 -28 -68 -78 0 -58 26 -80
87 -76 l48 2 3 107 c3 101 2 107 -17 107 -15 0 -20 -8 -23 -32z m-9 -72 c7 -8
11 -30 9 -48 -2 -28 -7 -33 -28 -33 -21 0 -26 5 -28 33 -3 31 11 62 28 62 4 0
13 -6 19 -14z"/>
<path d="M404 679 c-10 -17 13 -36 27 -22 12 12 4 33 -11 33 -5 0 -12 -5 -16
-11z"/>
<path d="M113 605 c-29 -13 -53 -30 -53 -38 0 -13 84 -57 109 -57 23 0 9 26
-19 37 -16 6 -30 16 -30 21 0 6 14 15 30 21 17 5 30 17 30 25 0 20 -4 20 -67
-9z"/>
<path d="M565 618 c-2 -7 -8 -26 -13 -43 -11 -39 -25 -35 -36 9 -7 25 -15 36
-28 36 -23 0 -23 -1 6 -80 30 -82 52 -87 78 -16 29 81 32 106 13 106 -8 0 -17
-6 -20 -12z"/>
<path d="M630 622 c0 -10 38 -42 50 -42 26 0 17 -22 -14 -35 -20 -9 -36 -20
-36 -25 0 -16 34 -12 85 10 61 26 56 45 -19 76 -67 27 -66 27 -66 16z"/>
<path d="M400 545 c0 -68 2 -75 20 -75 18 0 20 7 20 75 0 68 -2 75 -20 75 -18
0 -20 -7 -20 -75z"/>
<path d="M318 318 c-3 -29 -6 -33 -30 -30 -39 5 -68 -28 -68 -78 0 -58 26 -80
87 -76 l48 2 3 107 c3 101 2 107 -17 107 -15 0 -20 -8 -23 -32z m-9 -72 c7 -8
11 -30 9 -48 -2 -28 -7 -33 -28 -33 -21 0 -26 5 -28 33 -3 31 11 62 28 62 4 0
13 -6 19 -14z"/>
<path d="M404 339 c-10 -17 13 -36 27 -22 12 12 4 33 -11 33 -5 0 -12 -5 -16
-11z"/>
<path d="M113 265 c-29 -13 -53 -30 -53 -38 0 -13 84 -57 109 -57 23 0 9 26
-19 37 -16 6 -30 16 -30 21 0 6 14 15 30 21 17 5 30 17 30 25 0 20 -4 20 -67
-9z"/>
<path d="M565 278 c-2 -7 -8 -26 -13 -43 -11 -39 -25 -35 -36 9 -7 25 -15 36
-28 36 -23 0 -23 -1 6 -80 30 -82 52 -87 78 -16 29 81 32 106 13 106 -8 0 -17
-6 -20 -12z"/>
<path d="M630 282 c0 -10 38 -42 50 -42 26 0 17 -22 -14 -35 -20 -9 -36 -20
-36 -25 0 -16 34 -12 85 10 61 26 56 45 -19 76 -67 27 -66 27 -66 16z"/>
<path d="M400 205 c0 -68 2 -75 20 -75 18 0 20 7 20 75 0 68 -2 75 -20 75 -18
0 -20 -7 -20 -75z"/>
</g>
</svg>
